<svg xmlns="http://www.w3.org/2000/svg" viewBox="0 0 64 64"><g id="Layer_35" data-name="Layer 35"><path d="M60.71,32.16,39,10.5a1,1,0,0,0-1-.23c-.7.2-34.18,34.22-34.72,34.56a1,1,0,0,0,0,1.42l7.26,7.25a1,1,0,0,0,1.41,0L38.34,27.13,52,40.83a1,1,0,0,0,1.41,0l7.26-7.25A1,1,0,0,0,60.71,32.16ZM11.26,51.38,5.41,45.54l1-1C7.12,45.08,8,46.57,9,45.63s-.56-1.87-1.13-2.54L11.94,39c.66.58,1.55,2.07,2.55,1.14s-.56-1.88-1.14-2.55l4.08-4.07c.66.57,1.55,2.06,2.54,1.13s-.55-1.88-1.13-2.55L22.92,28c.66.58,1.55,2.07,2.54,1.13s-.55-1.88-1.13-2.54l4.07-4.08c.67.58,1.56,2.07,2.55,1.13s-.56-1.87-1.13-2.54c1-1,3.06-3.06,4.07-4.07.67.57,1.55,2.06,2.55,1.13s-.56-1.88-1.13-2.55l2-2V25.3ZM52.75,38.71,39.34,25.3V13.62L58.59,32.87Z"/><path d="M42.39,26.49,51.94,36a1,1,0,0,0,1.41,0l2.56-2.56a1,1,0,0,0,0-1.41l-9.55-9.54a1,1,0,0,0-1.41,0l-2.56,2.55A1,1,0,0,0,42.39,26.49Zm3.27-1.85,8.13,8.12-1.15,1.15-8.13-8.13Z"/></g></svg>