<?xml version="1.0" standalone="no"?>
<!DOCTYPE svg PUBLIC "-//W3C//DTD SVG 20010904//EN"
 "http://www.w3.org/TR/2001/REC-SVG-20010904/DTD/svg10.dtd">
<svg version="1.0" xmlns="http://www.w3.org/2000/svg"
 width="3012.000000pt" height="2197.000000pt" viewBox="0 0 3012.000000 2197.000000"
 preserveAspectRatio="xMidYMid meet">

<g transform="translate(0.000000,2197.000000) scale(0.100000,-0.100000)"
fill="#000000" stroke="none">
<path d="M15590 18565 c-1961 -106 -3776 -205 -4035 -219 -602 -33 -690 -50
-965 -188 -502 -251 -830 -736 -880 -1300 -6 -74 -10 -2154 -10 -6005 l0
-5893 345 0 c242 0 345 3 345 11 0 6 -124 1751 -275 3879 l-275 3868 0 1730
c0 1129 4 1766 10 1833 94 932 779 1691 1690 1873 207 42 318 46 1197 46 782
0 1002 -5 3630 -75 1538 -41 2830 -75 2870 -75 l73 0 0 355 0 355 -77 -1 c-43
-1 -1682 -88 -3643 -194z"/>
<path d="M15670 17700 c-1944 -114 -3625 -213 -3735 -219 -219 -12 -344 -33
-482 -82 -312 -110 -596 -336 -775 -615 -80 -125 -162 -328 -205 -504 -17 -72
-18 -327 -20 -5697 l-3 -5623 318 0 318 0 -3 37 c-2 21 -118 1656 -259 3633
l-255 3595 4 1670 c3 1541 4 1678 21 1775 76 456 267 825 582 1130 273 264
590 431 976 517 l123 27 1000 3 c939 3 1146 1 3396 -47 1318 -27 2450 -50
2517 -50 l122 0 0 330 0 330 -52 -1 c-29 -1 -1644 -95 -3588 -209z"/>
<path d="M16015 16900 c-1787 -114 -3339 -213 -3447 -219 -296 -16 -450 -52
-643 -149 -393 -196 -660 -549 -752 -992 -16 -80 -17 -379 -20 -5332 l-3
-5248 298 0 298 0 -4 37 c-1 21 -108 1527 -237 3346 l-235 3308 0 1578 c0
1030 4 1615 10 1682 82 802 666 1452 1452 1613 161 33 246 36 1028 36 662 0
4211 -44 5238 -65 l312 -7 0 311 0 311 -22 -1 c-13 -1 -1485 -95 -3273 -209z"/>
<path d="M16105 16134 c-1694 -117 -3121 -218 -3170 -223 -174 -20 -385 -100
-548 -208 -95 -63 -249 -213 -320 -310 -106 -148 -183 -326 -224 -523 -17 -81
-18 -316 -21 -4997 l-2 -4913 275 0 c167 0 275 4 275 10 0 5 -99 1402 -220
3104 l-220 3094 0 1505 c0 978 4 1541 10 1608 76 743 594 1330 1320 1495 214
48 233 49 2962 31 1399 -9 2666 -19 2816 -23 l272 -5 0 285 0 286 -62 -1 c-35
-1 -1449 -97 -3143 -215z"/>
<path d="M16540 15439 c-1499 -114 -2801 -213 -2893 -218 -247 -16 -369 -46
-539 -131 -301 -151 -522 -427 -616 -767 l-27 -98 -3 -4632 -2 -4633 250 0
c193 0 250 3 250 13 0 6 -45 659 -101 1450 -56 790 -100 1439 -98 1441 2 2
388 198 857 436 799 405 854 431 875 417 12 -7 418 -265 902 -571 960 -608
955 -604 1028 -744 19 -37 46 -96 59 -132 l23 -65 3 -1122 2 -1123 256 0 c239
0 255 1 250 18 -19 64 -398 1988 -416 2112 -32 222 -67 320 -165 456 -27 37
-287 273 -792 720 -414 365 -753 668 -753 672 0 4 29 22 65 40 l66 32 947
-616 c608 -396 960 -631 985 -658 62 -68 124 -175 159 -276 l33 -95 3 -1202 2
-1203 274 0 273 0 -212 1057 c-117 582 -223 1128 -235 1213 -12 85 -28 182
-37 215 -19 77 -89 225 -139 293 -21 30 -388 378 -814 775 -426 396 -776 723
-778 727 -1 3 27 20 64 38 l66 33 990 -653 c973 -641 992 -654 1045 -723 87
-111 147 -247 172 -389 7 -40 11 -484 11 -1323 l0 -1263 295 0 c162 0 295 1
295 3 0 2 -104 520 -230 1153 -127 632 -242 1230 -256 1329 -37 263 -83 389
-197 540 -34 46 -320 321 -844 810 -435 407 -792 744 -793 749 -1 5 25 24 58
42 l59 34 1024 -691 c563 -380 1046 -711 1072 -737 94 -92 176 -243 219 -405
l22 -82 3 -1372 4 -1373 315 0 c296 0 315 1 310 18 -24 82 -500 2501 -521
2647 -37 263 -82 392 -193 550 -19 28 -410 426 -869 885 l-833 836 64 31 65
32 1053 -716 c579 -393 1075 -736 1101 -762 67 -63 160 -208 198 -305 17 -45
40 -121 50 -171 18 -85 19 -164 19 -1567 l0 -1478 345 0 c190 0 345 1 345 3 0
2 -119 595 -264 1318 -146 725 -278 1413 -296 1534 -35 239 -62 348 -115 462
-77 166 -84 174 -999 1090 -550 551 -867 876 -861 882 6 5 177 94 380 198 388
198 510 271 665 401 411 344 669 803 767 1367 16 92 17 238 20 1768 l4 1667
-23 -1 c-13 -1 -1249 -95 -2748 -210z m-20 -858 c0 -302 -5 -584 -10 -642 -56
-555 -327 -1076 -745 -1437 -164 -141 -316 -236 -629 -394 l-281 -141 -1143
-384 c-629 -210 -1146 -383 -1148 -383 -3 0 -3 579 -1 1288 3 1287 3 1287 25
1384 69 299 200 548 399 758 250 263 566 426 923 475 74 10 378 13 1353 14
l1257 1 0 -539z m560 -110 c0 -527 -3 -672 -15 -768 -73 -557 -320 -1060 -714
-1453 -223 -222 -393 -337 -824 -557 l-322 -165 -1305 -438 c-718 -241 -1313
-442 -1322 -445 -16 -6 -18 -1 -18 41 l0 49 1668 844 c1016 514 1706 869 1767
909 283 185 482 484 562 842 14 66 17 178 20 933 l4 857 249 0 250 0 0 -649z
m627 -128 c-3 -681 -5 -791 -21 -883 -88 -532 -276 -968 -588 -1363 -96 -121
-328 -355 -448 -451 -172 -137 -338 -237 -715 -429 l-370 -189 -1473 -494
c-810 -272 -1478 -494 -1483 -494 -6 0 -9 20 -7 47 l3 46 1885 956 c1037 526
1908 969 1935 985 320 189 576 527 673 891 51 189 52 214 52 1218 l0 937 281
0 280 0 -4 -777z m713 20 c0 -904 -9 -1057 -77 -1363 -170 -768 -596 -1427
-1230 -1902 -178 -133 -293 -200 -728 -421 l-410 -208 -1653 -555 c-910 -304
-1657 -554 -1662 -554 -4 0 -10 19 -13 43 -3 32 0 46 13 58 10 8 971 498 2136
1088 2210 1119 2248 1139 2422 1291 236 206 428 517 511 828 57 212 54 148 58
1345 l4 1107 314 0 315 0 0 -757z m787 -200 c-3 -816 -7 -977 -21 -1083 -39
-295 -93 -531 -178 -780 -272 -790 -810 -1461 -1533 -1915 -60 -38 -317 -175
-570 -304 l-460 -234 -1858 -624 c-1022 -342 -1865 -623 -1873 -623 -10 0 -14
14 -14 54 l0 54 2400 1216 c1320 669 2430 1234 2467 1257 194 117 428 328 553
499 188 257 313 556 367 880 15 95 17 227 20 1333 l4 1227 350 0 350 0 -4
-957z"/>
<path d="M13999 3990 c-129 -23 -199 -103 -199 -227 0 -127 52 -171 259 -222
158 -39 185 -54 189 -105 5 -53 -24 -82 -96 -97 -102 -21 -184 12 -211 84 -10
26 -13 27 -82 27 l-72 0 6 -46 c7 -67 50 -122 122 -159 56 -28 65 -30 180 -30
115 0 124 2 180 30 77 39 114 90 122 167 8 74 -2 121 -34 158 -37 44 -83 65
-224 100 -68 17 -137 36 -152 42 -54 21 -62 71 -18 120 28 32 32 33 104 33 86
0 121 -18 146 -73 15 -32 15 -32 89 -32 l74 0 -7 33 c-19 87 -80 156 -164 185
-47 16 -156 23 -212 12z"/>
<path d="M16633 3990 c-146 -31 -244 -134 -273 -290 -42 -220 50 -419 221
-475 38 -13 73 -16 133 -13 87 5 123 19 181 69 36 32 41 30 47 -21 3 -23 8
-25 56 -28 l52 -3 0 200 0 201 -155 0 -155 0 0 -60 0 -60 85 0 c61 0 85 -3 85
-12 -1 -32 -41 -98 -76 -124 -34 -26 -45 -29 -114 -29 -66 0 -82 4 -117 27
-59 39 -87 102 -91 205 -5 107 15 177 66 229 57 59 145 80 215 50 32 -13 97
-78 97 -96 0 -6 33 -10 75 -10 69 0 75 2 75 20 0 66 -73 155 -157 193 -65 29
-181 42 -250 27z"/>
<path d="M9700 3606 l0 -376 75 0 75 0 0 146 0 146 125 -4 c100 -2 128 -6 141
-20 13 -12 19 -46 26 -130 4 -62 10 -119 13 -125 3 -9 31 -13 90 -13 83 0 99
6 71 29 -9 7 -15 47 -19 123 -6 127 -18 163 -61 185 l-29 15 24 19 c13 10 27
19 30 19 3 0 15 17 27 38 59 106 25 234 -78 292 -44 24 -51 25 -277 28 l-233
4 0 -376z m436 211 c28 -33 33 -100 9 -134 -20 -29 -100 -45 -206 -41 l-84 3
-3 89 c-2 49 0 96 3 104 4 11 30 13 131 10 124 -3 126 -3 150 -31z"/>
<path d="M10780 3605 l0 -375 280 0 280 0 0 65 0 65 -205 0 -205 0 0 100 0
100 180 0 180 0 0 60 0 60 -180 0 -180 0 0 85 0 85 200 0 200 0 0 65 0 65
-275 0 -275 0 0 -375z"/>
<path d="M11858 3605 l127 -375 76 0 75 0 123 361 c67 199 125 368 128 376 4
11 -9 13 -77 11 l-83 -3 -81 -283 c-44 -155 -83 -277 -87 -270 -4 7 -35 112
-69 233 -33 121 -68 244 -76 273 l-15 52 -84 0 -84 0 127 -375z"/>
<path d="M12810 3605 l0 -375 285 0 285 0 0 65 0 65 -210 0 -211 0 3 98 3 97
183 3 182 2 0 60 0 60 -182 2 -183 3 -3 83 -3 82 201 0 200 0 0 65 0 65 -275
0 -275 0 0 -375z"/>
<path d="M14750 3915 l0 -65 115 0 115 0 0 -310 0 -310 80 0 80 0 0 310 0 310
110 0 110 0 0 65 0 65 -305 0 -305 0 0 -65z"/>
<path d="M15760 3605 l0 -375 80 0 80 0 0 375 0 375 -80 0 -80 0 0 -375z"/>
<path d="M17576 3618 c-71 -200 -131 -369 -134 -376 -3 -10 14 -12 78 -10 l83
3 25 73 24 73 141 -3 141 -3 22 -70 22 -70 85 -3 86 -3 -44 123 c-24 68 -83
237 -132 375 l-88 253 -90 0 -91 0 -128 -362z m267 36 l43 -139 -89 -3 c-49
-1 -92 0 -95 2 -3 3 12 59 33 123 46 144 54 167 60 161 2 -2 24 -67 48 -144z"/>
<path d="M18560 3605 l0 -375 70 0 70 0 0 307 c0 168 3 303 8 299 4 -4 36
-141 72 -304 l66 -297 76 -3 77 -3 10 38 c5 21 35 155 67 298 31 143 60 264
65 270 5 5 9 -122 9 -298 l0 -307 70 0 70 0 0 375 0 375 -113 0 -113 0 -63
-282 c-35 -156 -67 -289 -70 -296 -4 -7 -27 72 -50 175 -24 103 -54 236 -68
296 l-25 107 -114 0 -114 0 0 -375z"/>
<path d="M19960 3955 c-5 -14 -60 -166 -121 -338 -61 -172 -117 -329 -125
-349 l-13 -38 83 0 82 0 24 75 24 75 141 0 141 0 24 -75 24 -75 83 0 c46 0 83
2 83 4 0 2 -58 169 -130 371 -71 202 -130 369 -130 371 0 2 -41 4 -90 4 -88 0
-91 -1 -100 -25z m142 -285 c20 -63 39 -125 43 -137 6 -23 5 -23 -90 -23 -74
0 -96 3 -92 13 2 6 23 72 46 146 23 73 46 130 50 125 4 -5 24 -61 43 -124z"/>
</g>
</svg>
